<?xml version="1.0" encoding="UTF-8"?><svg id="Layer_1" xmlns="http://www.w3.org/2000/svg" viewBox="0 0 1251.77 792.52"><defs><style>.cls-1,.cls-2,.cls-3,.cls-4,.cls-5,.cls-6,.cls-7,.cls-8,.cls-9,.cls-10,.cls-11,.cls-12,.cls-13{fill:none;stroke-linecap:round;stroke-linejoin:round;}.cls-1,.cls-2,.cls-3,.cls-4,.cls-5,.cls-6,.cls-7,.cls-9{stroke-width:2px;}.cls-1,.cls-4,.cls-5,.cls-6,.cls-7{stroke:#231f20;}.cls-1,.cls-5{stroke-dasharray:0 0 0 12;}.cls-14,.cls-5,.cls-7,.cls-8,.cls-9,.cls-10,.cls-11,.cls-12,.cls-13{opacity:.08;}.cls-2,.cls-12,.cls-13{stroke:#000;}.cls-3,.cls-8,.cls-9,.cls-10,.cls-11{stroke:#65a30d;}.cls-15{fill:#fff;}.cls-15,.cls-5,.cls-7,.cls-8,.cls-9,.cls-10,.cls-11,.cls-12,.cls-13{isolation:isolate;}.cls-15,.cls-16{opacity:.5;}.cls-6{stroke-dasharray:0 0 0 0 0 0 13.28 13.28;}.cls-8{stroke-width:2px;}.cls-10,.cls-12{stroke-width:2px;}.cls-11,.cls-13{stroke-width:2px;}</style></defs><g class="cls-16"><g><rect class="cls-15" width="450.68" height="422.88"/><polyline class="cls-7" points="176.28 167.42 188.15 174.47 200.02 167.42 211.9 174.47"/><rect class="cls-9" x="208.35" y="193.24" width="12.87" height="12.07"/><polyline class="cls-7" points="194.46 253.65 206.34 246.6 218.21 253.65"/><g class="cls-14"><line class="cls-2" x1="162.1" y1="202.3" x2="162.1" y2="216.22"/><line class="cls-2" x1="169.52" y1="209.26" x2="154.69" y2="209.26"/></g><path class="cls-7" d="M35.2,175.47c4.2-3.94,9.51,1.05,13.71-2.89,4.2-3.94-1.12-8.92,3.08-12.86,4.2-3.94,9.51,1.05,13.71-2.89,4.2-3.94-1.11-8.92,3.08-12.86,4.2-3.94,9.51,1.04,13.71-2.89"/><path class="cls-7" d="M324.11,356.53c5.93,0,5.93,7.05,11.87,7.05s5.94-7.05,11.87-7.05,5.93,7.05,11.87,7.05,5.94-7.05,11.87-7.05,5.94,7.05,11.87,7.05"/><path class="cls-7" d="M147.47,399.07c5.93,0,5.93,7.05,11.87,7.05s5.94-7.05,11.87-7.05,5.93,7.05,11.87,7.05,5.94-7.05,11.87-7.05,5.94,7.05,11.87,7.05"/><path class="cls-7" d="M376.45,21.4c5.93,0,5.93,7.05,11.87,7.05s5.94-7.05,11.87-7.05,5.93,7.05,11.87,7.05,5.94-7.05,11.87-7.05,5.94,7.05,11.87,7.05"/><path class="cls-9" d="M117.79,127.42c5.93,0,5.93,7.05,11.87,7.05s5.94-7.05,11.87-7.05,5.93,7.05,11.87,7.05,5.94-7.05,11.87-7.05,5.94,7.05,11.87,7.05"/><polyline class="cls-7" points="71 231.87 84.71 228.98 87.79 216.12 101.5 213.22 104.59 200.36 118.29 197.47"/><polyline class="cls-7" points="264.55 100.33 276.42 107.38 288.29 100.33 300.17 107.38 312.04 100.33 323.91 107.38"/><polyline class="cls-5" points="288.89 109.6 300.76 116.65 312.64 109.6 324.51 116.65 336.39 109.6 348.26 116.65"/><polyline class="cls-9" points="22.85 395.4 36.56 392.5 39.64 379.64 53.35 376.75 56.44 363.89 70.14 360.99"/><polyline class="cls-5" points="47.05 385.8 60.76 382.91 63.85 370.05 77.55 367.15 80.64 354.29 94.35 351.4"/><polyline class="cls-7" points="306.4 254.01 318.28 261.06 330.15 254.01 342.03 261.06"/><polyline class="cls-7" points="318.28 270.67 330.15 263.62 342.03 270.67"/><polyline class="cls-7" points="213.47 89.6 225.34 82.55 237.22 89.6"/><polyline class="cls-7" points="411.84 143.04 423.71 135.99 435.59 143.04"/><polyline class="cls-7" points="389.65 387.07 401.52 394.12 413.4 387.07 425.27 394.12"/><polyline class="cls-7" points="401.52 403.73 413.4 396.68 425.27 403.73"/><polyline class="cls-9" points="15.31 215.77 27.19 222.82 39.06 215.77 50.94 222.82"/><polyline class="cls-7" points="27.19 232.43 39.06 225.38 50.94 232.43"/><polyline class="cls-7" points="214.44 351.36 228.14 348.47 231.23 335.61 244.94 332.71"/><polyline class="cls-9" points="235.38 355.27 238.47 342.4 252.18 339.51"/><polyline class="cls-7" points="394.37 90.05 408.08 87.16 411.16 74.29 424.87 71.4"/><polyline class="cls-9" points="415.32 93.95 418.4 81.09 432.11 78.19"/><polyline class="cls-9" points="87.05 271.08 98.92 278.13 110.79 271.08 122.67 278.13"/><polyline class="cls-7" points="98.82 332.82 110.69 325.77 122.57 332.82"/><polyline class="cls-7" points="330.15 41 342.03 33.95 353.9 41"/><g class="cls-14"><line class="cls-4" x1="143.88" y1="294.75" x2="143.88" y2="308.67"/><line class="cls-4" x1="151.29" y1="301.7" x2="136.46" y2="301.7"/></g><g class="cls-14"><line class="cls-4" x1="172.1" y1="93.85" x2="172.1" y2="107.76"/><line class="cls-4" x1="179.51" y1="100.81" x2="164.68" y2="100.81"/></g><g class="cls-14"><line class="cls-4" x1="409.79" y1="250.58" x2="409.79" y2="264.49"/><line class="cls-4" x1="417.2" y1="257.54" x2="402.37" y2="257.54"/></g><g class="cls-14"><line class="cls-3" x1="288.89" y1="141.68" x2="288.89" y2="155.59"/><line class="cls-3" x1="296.31" y1="148.63" x2="281.48" y2="148.63"/></g><g class="cls-14"><line class="cls-3" x1="76.72" y1="190.51" x2="76.72" y2="204.43"/><line class="cls-3" x1="84.14" y1="197.47" x2="69.31" y2="197.47"/></g><g class="cls-14"><line class="cls-2" x1="49.97" y1="68.02" x2="49.97" y2="81.94"/><line class="cls-2" x1="57.39" y1="74.98" x2="42.56" y2="74.98"/></g><ellipse class="cls-7" cx="143.88" cy="340.52" rx="6.02" ry="5.65"/><ellipse class="cls-7" cx="98.83" cy="156.2" rx="6.02" ry="5.65"/><g class="cls-14"><line class="cls-3" x1="26.21" y1="354.77" x2="26.21" y2="368.69"/><line class="cls-3" x1="33.63" y1="361.73" x2="18.8" y2="361.73"/></g><ellipse class="cls-7" cx="49.97" cy="339.75" rx="6.02" ry="5.65"/><g class="cls-14"><g><polyline class="cls-4" points="109.69 94.5 108.56 92.67 107.44 94.5"/><line class="cls-6" x1="104.94" y1="98.55" x2="101.2" y2="104.63"/><polyline class="cls-4" points="99.95 106.66 98.83 108.49 101.08 108.49"/><line class="cls-6" x1="106.07" y1="108.49" x2="113.55" y2="108.49"/><polyline class="cls-4" points="116.04 108.49 118.29 108.49 117.17 106.66"/><line class="cls-6" x1="114.67" y1="102.6" x2="110.94" y2="96.52"/></g></g><polygon class="cls-5" points="424.87 181.13 415.13 196.95 434.6 196.95 424.87 181.13"/><g class="cls-14"><line class="cls-3" x1="281.87" y1="282.73" x2="271.38" y2="292.57"/><line class="cls-3" x1="281.87" y1="292.57" x2="271.38" y2="282.73"/></g><ellipse class="cls-8" cx="243.12" cy="379.06" rx="6.02" ry="5.65"/><ellipse class="cls-12" cx="273.56" cy="65.08" rx="6.02" ry="5.65"/><polyline class="cls-7" points="99.42 37.39 113.13 34.5 116.22 21.63 129.92 18.74"/><polyline class="cls-9" points="120.37 41.29 123.46 28.43 137.17 25.53"/><ellipse class="cls-10" cx="128.12" cy="65.08" rx="6.02" ry="5.65"/><polyline class="cls-7" points="334.93 160.49 348.63 157.6 351.72 144.74 365.43 141.84"/><polyline class="cls-9" points="355.88 164.39 358.96 151.53 372.67 148.63"/><ellipse class="cls-9" cx="363.61" cy="188.18" rx="6.02" ry="5.65"/><polygon class="cls-9" points="171.74 360.58 154.24 364.98 167.05 377 171.74 360.58"/><polygon class="cls-9" points="46.81 137.56 29.31 141.95 42.12 153.97 46.81 137.56"/><polygon class="cls-9" points="306.79 22.02 289.3 26.42 302.1 38.44 306.79 22.02"/><rect class="cls-7" x="293.92" y="315.17" width="12.87" height="12.07"/><rect class="cls-9" x="323.72" y="393.03" width="12.87" height="12.07"/><polygon class="cls-13" points="178.85 323.71 187.95 315.17 197.04 323.71 187.95 332.25 178.85 323.71"/><polygon class="cls-13" points="228.7 18.74 237.8 10.2 246.9 18.74 237.8 27.28 228.7 18.74"/><polygon class="cls-13" points="13 20.14 22.1 11.6 31.2 20.14 22.1 28.67 13 20.14"/><polygon class="cls-13" points="95.76 399.07 104.86 390.53 113.96 399.07 104.86 407.6 95.76 399.07"/><rect class="cls-9" x="134.61" y="248.99" width="12.87" height="12.07"/><polygon class="cls-11" points="363.62 56.29 372.72 64.83 363.62 73.37 354.52 64.83 363.62 56.29"/><g class="cls-14"><rect class="cls-4" x="383.6" y="309.06" width="21.54" height="20.21"/><polygon class="cls-1" points="409.79 305.33 388.25 305.33 383.6 309.06 405.13 309.06 409.79 305.33"/><polygon class="cls-1" points="409.79 325.54 409.79 305.33 405.13 309.06 405.13 329.27 409.79 325.54"/></g><g class="cls-14"><rect class="cls-2" x="22.1" y="278.87" width="21.54" height="20.21"/><polygon class="cls-2" points="48.29 275.14 26.75 275.14 22.1 278.87 43.64 278.87 48.29 275.14"/><polygon class="cls-2" points="48.29 295.35 48.29 275.14 43.64 278.87 43.64 299.08 48.29 295.35"/></g><g class="cls-14"><rect class="cls-3" x="186.89" y="44.74" width="21.54" height="20.21"/><polygon class="cls-3" points="213.08 41 191.54 41 186.89 44.74 208.43 44.74 213.08 41"/><polygon class="cls-3" points="213.08 61.21 213.08 41 208.43 44.74 208.43 64.95 213.08 61.21"/></g><g class="cls-14"><rect class="cls-2" x="264.02" y="229.76" width="21.54" height="20.21"/><polygon class="cls-2" points="290.21 226.02 268.67 226.02 264.02 229.76 285.56 229.76 290.21 226.02"/><polygon class="cls-2" points="290.21 246.23 290.21 226.02 285.56 229.76 285.56 249.97 290.21 246.23"/></g><ellipse class="cls-10" cx="263.64" cy="175.39" rx="6.02" ry="5.65"/><ellipse class="cls-9" cx="217.59" cy="145.78" rx="6.02" ry="5.65"/></g><g><rect class="cls-15" x="433.41" y="10.91" width="450.68" height="422.88"/><polyline class="cls-7" points="609.68 178.33 621.56 185.38 633.43 178.33 645.31 185.38"/><rect class="cls-9" x="641.76" y="204.15" width="12.87" height="12.07"/><polyline class="cls-7" points="627.87 264.56 639.75 257.51 651.62 264.56"/><g class="cls-14"><line class="cls-2" x1="595.51" y1="213.21" x2="595.51" y2="227.13"/><line class="cls-2" x1="602.93" y1="220.17" x2="588.09" y2="220.17"/></g><path class="cls-7" d="M468.6,186.38c4.2-3.94,9.51,1.05,13.71-2.89,4.2-3.94-1.12-8.92,3.08-12.86,4.2-3.94,9.51,1.05,13.71-2.89,4.2-3.94-1.11-8.92,3.08-12.86,4.2-3.94,9.51,1.04,13.71-2.89"/><path class="cls-7" d="M757.52,367.44c5.93,0,5.93,7.05,11.87,7.05s5.94-7.05,11.87-7.05,5.93,7.05,11.87,7.05,5.94-7.05,11.87-7.05,5.94,7.05,11.87,7.05"/><path class="cls-7" d="M580.88,409.98c5.93,0,5.93,7.05,11.87,7.05s5.94-7.05,11.87-7.05,5.93,7.05,11.87,7.05,5.94-7.05,11.87-7.05,5.94,7.05,11.87,7.05"/><path class="cls-7" d="M809.86,32.31c5.93,0,5.93,7.05,11.87,7.05s5.94-7.05,11.87-7.05,5.93,7.05,11.87,7.05,5.94-7.05,11.87-7.05,5.94,7.05,11.87,7.05"/><path class="cls-9" d="M551.2,138.33c5.93,0,5.93,7.05,11.87,7.05s5.94-7.05,11.87-7.05,5.93,7.05,11.87,7.05,5.94-7.05,11.87-7.05,5.94,7.05,11.87,7.05"/><polyline class="cls-7" points="504.41 242.78 518.12 239.89 521.2 227.02 534.91 224.13 538 211.27 551.7 208.38"/><polyline class="cls-7" points="697.96 111.24 709.83 118.28 721.7 111.24 733.58 118.28 745.45 111.24 757.32 118.28"/><polyline class="cls-5" points="722.3 120.51 734.17 127.56 746.05 120.51 757.92 127.56 769.8 120.51 781.67 127.56"/><polyline class="cls-9" points="456.26 406.31 469.97 403.41 473.05 390.55 486.76 387.66 489.85 374.79 503.55 371.9"/><polyline class="cls-5" points="480.46 396.71 494.17 393.82 497.26 380.96 510.96 378.06 514.05 365.2 527.76 362.3"/><polyline class="cls-7" points="739.81 264.92 751.68 271.97 763.56 264.92 775.44 271.97"/><polyline class="cls-7" points="751.68 281.58 763.56 274.53 775.44 281.58"/><polyline class="cls-7" points="646.87 100.5 658.75 93.45 670.63 100.5"/><polyline class="cls-7" points="845.25 153.95 857.12 146.9 869 153.95"/><polyline class="cls-7" points="823.06 397.98 834.93 405.03 846.81 397.98 858.68 405.03"/><polyline class="cls-7" points="834.93 414.64 846.81 407.59 858.68 414.64"/><polyline class="cls-9" points="448.72 226.68 460.6 233.72 472.47 226.68 484.35 233.72"/><polyline class="cls-7" points="460.6 243.34 472.47 236.29 484.35 243.34"/><polyline class="cls-7" points="647.84 362.27 661.55 359.38 664.63 346.51 678.34 343.62"/><polyline class="cls-9" points="668.79 366.17 671.88 353.31 685.59 350.42"/><polyline class="cls-7" points="827.77 100.96 841.48 98.06 844.57 85.2 858.28 82.31"/><polyline class="cls-9" points="848.73 104.86 851.81 92 865.52 89.1"/><polyline class="cls-9" points="520.46 281.99 532.33 289.04 544.2 281.99 556.08 289.04"/><polyline class="cls-7" points="532.23 343.73 544.1 336.68 555.98 343.73"/><polyline class="cls-7" points="763.56 51.91 775.44 44.86 787.31 51.91"/><g class="cls-14"><line class="cls-4" x1="577.29" y1="305.66" x2="577.29" y2="319.57"/><line class="cls-4" x1="584.7" y1="312.61" x2="569.87" y2="312.61"/></g><g class="cls-14"><line class="cls-4" x1="605.51" y1="104.75" x2="605.51" y2="118.67"/><line class="cls-4" x1="612.92" y1="111.72" x2="598.09" y2="111.72"/></g><g class="cls-14"><line class="cls-4" x1="843.19" y1="261.49" x2="843.19" y2="275.4"/><line class="cls-4" x1="850.61" y1="268.44" x2="835.78" y2="268.44"/></g><g class="cls-14"><line class="cls-3" x1="722.3" y1="152.58" x2="722.3" y2="166.5"/><line class="cls-3" x1="729.71" y1="159.54" x2="714.89" y2="159.54"/></g><g class="cls-14"><line class="cls-3" x1="510.13" y1="201.42" x2="510.13" y2="215.33"/><line class="cls-3" x1="517.55" y1="208.38" x2="502.72" y2="208.38"/></g><g class="cls-14"><line class="cls-2" x1="483.38" y1="78.93" x2="483.38" y2="92.85"/><line class="cls-2" x1="490.8" y1="85.89" x2="475.97" y2="85.89"/></g><ellipse class="cls-7" cx="577.29" cy="351.42" rx="6.02" ry="5.65"/><ellipse class="cls-7" cx="532.24" cy="167.11" rx="6.02" ry="5.65"/><g class="cls-14"><line class="cls-3" x1="459.62" y1="365.68" x2="459.62" y2="379.6"/><line class="cls-3" x1="467.04" y1="372.64" x2="452.2" y2="372.64"/></g><ellipse class="cls-7" cx="483.38" cy="350.66" rx="6.02" ry="5.65"/><g class="cls-14"><g><polyline class="cls-4" points="543.1 105.41 541.97 103.58 540.84 105.41"/><line class="cls-6" x1="538.35" y1="109.46" x2="534.61" y2="115.54"/><polyline class="cls-4" points="533.36 117.57 532.24 119.39 534.49 119.39"/><line class="cls-6" x1="539.48" y1="119.39" x2="546.96" y2="119.39"/><polyline class="cls-4" points="549.45 119.39 551.7 119.39 550.58 117.57"/><line class="cls-6" x1="548.08" y1="113.51" x2="544.35" y2="107.43"/></g></g><polygon class="cls-5" points="858.28 192.04 848.54 207.86 868.01 207.86 858.28 192.04"/><g class="cls-14"><line class="cls-3" x1="715.28" y1="293.63" x2="704.79" y2="303.47"/><line class="cls-3" x1="715.28" y1="303.47" x2="704.79" y2="293.63"/></g><ellipse class="cls-8" cx="676.52" cy="389.97" rx="6.02" ry="5.65"/><ellipse class="cls-12" cx="706.97" cy="75.99" rx="6.02" ry="5.65"/><polyline class="cls-7" points="532.83 48.3 546.54 45.41 549.63 32.54 563.33 29.65"/><polyline class="cls-9" points="553.78 52.2 556.87 39.34 570.57 36.44"/><ellipse class="cls-10" cx="561.52" cy="75.99" rx="6.02" ry="5.65"/><polyline class="cls-7" points="768.34 171.4 782.04 168.5 785.13 155.64 798.84 152.75"/><polyline class="cls-9" points="789.28 175.3 792.37 162.44 806.08 159.54"/><ellipse class="cls-9" cx="797.02" cy="199.09" rx="6.02" ry="5.65"/><polygon class="cls-9" points="605.15 371.49 587.65 375.89 600.46 387.91 605.15 371.49"/><polygon class="cls-9" points="480.22 148.46 462.72 152.86 475.53 164.88 480.22 148.46"/><polygon class="cls-9" points="740.2 32.93 722.71 37.33 735.51 49.35 740.2 32.93"/><rect class="cls-7" x="727.33" y="326.08" width="12.87" height="12.07"/><rect class="cls-9" x="757.13" y="403.94" width="12.87" height="12.07"/><polygon class="cls-13" points="612.25 334.62 621.35 326.08 630.45 334.62 621.35 343.16 612.25 334.62"/><polygon class="cls-13" points="662.11 29.65 671.21 21.11 680.31 29.65 671.21 38.19 662.11 29.65"/><polygon class="cls-13" points="446.41 31.04 455.51 22.51 464.61 31.04 455.51 39.58 446.41 31.04"/><polygon class="cls-13" points="529.17 409.97 538.27 401.44 547.37 409.97 538.27 418.51 529.17 409.97"/><rect class="cls-9" x="568.02" y="259.9" width="12.87" height="12.07"/><polygon class="cls-11" points="797.03 67.2 806.13 75.74 797.03 84.27 787.93 75.74 797.03 67.2"/><g class="cls-14"><rect class="cls-4" x="817.01" y="319.97" width="21.54" height="20.21"/><polygon class="cls-1" points="843.19 316.24 821.66 316.24 817.01 319.97 838.54 319.97 843.19 316.24"/><polygon class="cls-1" points="843.19 336.45 843.19 316.24 838.54 319.97 838.54 340.18 843.19 336.45"/></g><g class="cls-14"><rect class="cls-2" x="455.51" y="289.77" width="21.54" height="20.21"/><polygon class="cls-2" points="481.7 286.05 460.16 286.05 455.51 289.77 477.05 289.77 481.7 286.05"/><polygon class="cls-2" points="481.7 306.25 481.7 286.05 477.05 289.77 477.05 309.98 481.7 306.25"/></g><g class="cls-14"><rect class="cls-3" x="620.3" y="55.64" width="21.54" height="20.21"/><polygon class="cls-3" points="646.49 51.91 624.95 51.91 620.3 55.64 641.84 55.64 646.49 51.91"/><polygon class="cls-3" points="646.49 72.12 646.49 51.91 641.84 55.64 641.84 75.85 646.49 72.12"/></g><g class="cls-14"><rect class="cls-2" x="697.43" y="240.66" width="21.54" height="20.21"/><polygon class="cls-2" points="723.61 236.93 702.08 236.93 697.43 240.66 718.96 240.66 723.61 236.93"/><polygon class="cls-2" points="723.61 257.14 723.61 236.93 718.96 240.66 718.96 260.87 723.61 257.14"/></g><ellipse class="cls-10" cx="697.05" cy="186.3" rx="6.02" ry="5.65"/><ellipse class="cls-9" cx="651" cy="156.69" rx="6.02" ry="5.65"/></g><g><rect class="cls-15" x="11.5" y="418.74" width="385.23" height="363.4"/><polyline class="cls-7" points="162.18 562.62 172.32 568.67 182.47 562.62 192.63 568.67"/><rect class="cls-9" x="189.59" y="584.81" width="11" height="10.38"/><polyline class="cls-7" points="177.72 636.72 187.87 630.66 198.02 636.72"/><g class="cls-14"><line class="cls-2" x1="150.06" y1="592.59" x2="150.06" y2="604.55"/><line class="cls-2" x1="156.4" y1="598.57" x2="143.72" y2="598.57"/></g><path class="cls-7" d="M41.58,569.53c3.59-3.39,8.13,.9,11.72-2.49,3.59-3.39-.95-7.67,2.64-11.05,3.59-3.38,8.13,.9,11.72-2.49,3.59-3.39-.95-7.67,2.64-11.05,3.59-3.39,8.13,.9,11.72-2.49"/><path class="cls-7" d="M288.54,725.13c5.07,0,5.07,6.06,10.15,6.06s5.08-6.06,10.15-6.06,5.07,6.06,10.15,6.06,5.08-6.06,10.15-6.06,5.08,6.06,10.15,6.06"/><path class="cls-7" d="M137.56,761.68c5.07,0,5.07,6.06,10.15,6.06s5.08-6.06,10.15-6.06,5.07,6.06,10.15,6.06,5.08-6.06,10.15-6.06,5.08,6.06,10.15,6.06"/><path class="cls-7" d="M333.28,437.14c5.07,0,5.07,6.06,10.15,6.06s5.08-6.06,10.15-6.06,5.07,6.06,10.15,6.06,5.08-6.06,10.15-6.06,5.08,6.06,10.15,6.06"/><path class="cls-9" d="M112.18,528.24c5.07,0,5.07,6.06,10.15,6.06s5.08-6.06,10.15-6.06,5.07,6.06,10.15,6.06,5.08-6.06,10.15-6.06,5.08,6.06,10.15,6.06"/><polyline class="cls-7" points="72.19 618 83.91 615.52 86.54 604.46 98.26 601.98 100.9 590.92 112.62 588.44"/><polyline class="cls-7" points="237.63 504.96 247.78 511.02 257.93 504.96 268.07 511.02 278.22 504.96 288.37 511.02"/><polyline class="cls-5" points="258.44 512.93 268.58 518.98 278.73 512.93 288.88 518.98 299.04 512.93 309.18 518.98"/><polyline class="cls-9" points="31.03 758.53 42.75 756.04 45.39 744.99 57.11 742.5 59.74 731.45 71.46 728.96"/><polyline class="cls-5" points="51.72 750.28 63.44 747.79 66.08 736.74 77.79 734.26 80.43 723.2 92.15 720.71"/><polyline class="cls-7" points="273.4 637.03 283.55 643.08 293.71 637.03 303.85 643.08"/><polyline class="cls-7" points="283.55 651.34 293.71 645.29 303.85 651.34"/><polyline class="cls-7" points="193.96 495.74 204.12 489.68 214.27 495.74"/><polyline class="cls-7" points="363.53 541.66 373.68 535.61 383.83 541.66"/><polyline class="cls-7" points="344.56 751.37 354.71 757.43 364.86 751.37 375.01 757.43"/><polyline class="cls-7" points="354.71 765.69 364.86 759.63 375.01 765.69"/><polyline class="cls-9" points="24.59 604.16 34.74 610.22 44.89 604.16 55.04 610.22"/><polyline class="cls-7" points="34.74 618.48 44.89 612.42 55.04 618.48"/><polyline class="cls-7" points="194.79 720.69 206.51 718.2 209.15 707.15 220.86 704.66"/><polyline class="cls-9" points="212.7 724.04 215.34 712.99 227.05 710.5"/><polyline class="cls-7" points="348.59 496.13 360.31 493.64 362.95 482.59 374.67 480.1"/><polyline class="cls-9" points="366.5 499.48 369.14 488.42 380.86 485.94"/><polyline class="cls-9" points="85.91 651.7 96.05 657.76 106.2 651.7 116.36 657.76"/><polyline class="cls-7" points="95.97 704.75 106.12 698.7 116.27 704.75"/><polyline class="cls-7" points="293.71 453.98 303.85 447.92 314.01 453.98"/><g class="cls-14"><line class="cls-4" x1="134.48" y1="672.03" x2="134.48" y2="683.99"/><line class="cls-4" x1="140.82" y1="678.01" x2="128.14" y2="678.01"/></g><g class="cls-14"><line class="cls-4" x1="158.61" y1="499.39" x2="158.61" y2="511.35"/><line class="cls-4" x1="164.94" y1="505.37" x2="152.27" y2="505.37"/></g><g class="cls-14"><line class="cls-4" x1="361.77" y1="634.08" x2="361.77" y2="646.03"/><line class="cls-4" x1="368.11" y1="640.06" x2="355.43" y2="640.06"/></g><g class="cls-14"><line class="cls-3" x1="258.44" y1="540.49" x2="258.44" y2="552.45"/><line class="cls-3" x1="264.77" y1="546.47" x2="252.1" y2="546.47"/></g><g class="cls-14"><line class="cls-3" x1="77.08" y1="582.46" x2="77.08" y2="594.42"/><line class="cls-3" x1="83.42" y1="588.44" x2="70.74" y2="588.44"/></g><g class="cls-14"><line class="cls-2" x1="54.22" y1="477.2" x2="54.22" y2="489.15"/><line class="cls-2" x1="60.55" y1="483.18" x2="47.88" y2="483.18"/></g><ellipse class="cls-7" cx="134.48" cy="711.36" rx="5.15" ry="4.86"/><ellipse class="cls-7" cx="95.98" cy="552.98" rx="5.15" ry="4.86"/><g class="cls-14"><line class="cls-3" x1="33.9" y1="723.62" x2="33.9" y2="735.57"/><line class="cls-3" x1="40.25" y1="729.59" x2="27.57" y2="729.59"/></g><ellipse class="cls-7" cx="54.22" cy="710.71" rx="5.15" ry="4.86"/><g class="cls-14"><g><polyline class="cls-4" points="105.26 499.95 104.3 498.38 103.33 499.95"/><line class="cls-6" x1="101.2" y1="503.43" x2="98" y2="508.66"/><polyline class="cls-4" points="96.94 510.4 95.97 511.97 97.9 511.97"/><line class="cls-6" x1="102.16" y1="511.97" x2="108.56" y2="511.97"/><polyline class="cls-4" points="110.69 511.97 112.62 511.97 111.65 510.4"/><line class="cls-6" x1="109.52" y1="506.92" x2="106.33" y2="501.69"/></g></g><polygon class="cls-5" points="374.67 574.4 366.34 587.99 382.99 587.99 374.67 574.4"/><g class="cls-14"><line class="cls-3" x1="252.43" y1="661.7" x2="243.47" y2="670.16"/><line class="cls-3" x1="252.43" y1="670.16" x2="243.47" y2="661.7"/></g><ellipse class="cls-8" cx="219.31" cy="744.49" rx="5.15" ry="4.86"/><ellipse class="cls-12" cx="245.33" cy="474.67" rx="5.15" ry="4.86"/><polyline class="cls-7" points="96.48 450.87 108.2 448.39 110.84 437.33 122.56 434.85"/><polyline class="cls-9" points="114.39 454.23 117.03 443.17 128.75 440.69"/><ellipse class="cls-10" cx="121.01" cy="474.67" rx="5.15" ry="4.86"/><polyline class="cls-7" points="297.79 556.66 309.5 554.17 312.14 543.12 323.86 540.63"/><polyline class="cls-9" points="315.69 560.01 318.33 548.96 330.05 546.47"/><ellipse class="cls-9" cx="322.31" cy="580.45" rx="5.15" ry="4.86"/><polygon class="cls-9" points="158.3 728.61 143.34 732.39 154.29 742.72 158.3 728.61"/><polygon class="cls-9" points="51.51 536.95 36.56 540.73 47.5 551.06 51.51 536.95"/><polygon class="cls-9" points="273.73 437.67 258.78 441.45 269.73 451.77 273.73 437.67"/><rect class="cls-7" x="262.74" y="689.58" width="11" height="10.38"/><rect class="cls-9" x="288.21" y="756.49" width="11" height="10.38"/><polygon class="cls-13" points="164.37 696.92 172.15 689.58 179.93 696.92 172.15 704.26 164.37 696.92"/><polygon class="cls-13" points="206.99 434.85 214.76 427.51 222.54 434.85 214.76 442.18 206.99 434.85"/><polygon class="cls-13" points="22.61 436.05 30.39 428.71 38.17 436.05 30.39 443.38 22.61 436.05"/><polygon class="cls-13" points="93.35 761.68 101.13 754.34 108.91 761.68 101.13 769.02 93.35 761.68"/><rect class="cls-9" x="126.56" y="632.71" width="11" height="10.38"/><polygon class="cls-11" points="322.31 467.11 330.09 474.45 322.31 481.79 314.53 474.45 322.31 467.11"/><g class="cls-14"><rect class="cls-4" x="339.39" y="684.33" width="18.41" height="17.37"/><polygon class="cls-1" points="361.77 681.13 343.36 681.13 339.39 684.33 357.8 684.33 361.77 681.13"/><polygon class="cls-1" points="361.77 698.49 361.77 681.13 357.8 684.33 357.8 701.7 361.77 698.49"/></g><g class="cls-14"><rect class="cls-2" x="30.39" y="658.39" width="18.41" height="17.37"/><polygon class="cls-2" points="52.78 655.18 34.37 655.18 30.39 658.39 48.8 658.39 52.78 655.18"/><polygon class="cls-2" points="52.78 672.55 52.78 655.18 48.8 658.39 48.8 675.75 52.78 672.55"/></g><g class="cls-14"><rect class="cls-3" x="171.25" y="457.19" width="18.41" height="17.37"/><polygon class="cls-3" points="193.63 453.98 175.22 453.98 171.25 457.19 189.66 457.19 193.63 453.98"/><polygon class="cls-3" points="193.63 471.35 193.63 453.98 189.66 457.19 189.66 474.55 193.63 471.35"/></g><g class="cls-14"><rect class="cls-2" x="237.17" y="616.18" width="18.41" height="17.37"/><polygon class="cls-2" points="259.56 612.98 241.15 612.98 237.17 616.18 255.58 616.18 259.56 612.98"/><polygon class="cls-2" points="259.56 630.34 259.56 612.98 255.58 616.18 255.58 633.55 259.56 630.34"/></g><ellipse class="cls-10" cx="236.85" cy="569.46" rx="5.15" ry="4.86"/><ellipse class="cls-9" cx="197.49" cy="544.02" rx="5.15" ry="4.86"/></g><g><rect class="cls-15" x="432.54" y="429.12" width="404.42" height="363.4"/><polyline class="cls-7" points="590.72 573 601.37 579.06 612.03 573 622.69 579.06"/><rect class="cls-9" x="619.5" y="595.19" width="11.55" height="10.38"/><polyline class="cls-7" points="607.04 647.1 617.7 641.04 628.35 647.1"/><g class="cls-14"><line class="cls-2" x1="578" y1="602.97" x2="578" y2="614.93"/><line class="cls-2" x1="584.66" y1="608.95" x2="571.35" y2="608.95"/></g><path class="cls-7" d="M464.12,579.91c3.77-3.39,8.53,.9,12.3-2.49,3.77-3.39-1-7.67,2.77-11.05,3.77-3.38,8.53,.9,12.3-2.49,3.77-3.39-1-7.67,2.77-11.05,3.77-3.39,8.53,.9,12.3-2.49"/><path class="cls-7" d="M723.38,735.51c5.33,0,5.33,6.06,10.65,6.06s5.33-6.06,10.65-6.06,5.33,6.06,10.65,6.06,5.33-6.06,10.65-6.06,5.33,6.06,10.65,6.06"/><path class="cls-7" d="M564.87,772.06c5.33,0,5.33,6.06,10.65,6.06s5.33-6.06,10.65-6.06,5.33,6.06,10.65,6.06,5.33-6.06,10.65-6.06,5.33,6.06,10.65,6.06"/><path class="cls-7" d="M770.35,447.52c5.33,0,5.33,6.06,10.65,6.06s5.33-6.06,10.65-6.06,5.33,6.06,10.65,6.06,5.33-6.06,10.65-6.06,5.33,6.06,10.65,6.06"/><path class="cls-9" d="M538.24,538.63c5.33,0,5.33,6.06,10.65,6.06s5.33-6.06,10.65-6.06,5.33,6.06,10.65,6.06,5.33-6.06,10.65-6.06,5.33,6.06,10.65,6.06"/><polyline class="cls-7" points="496.25 628.39 508.55 625.9 511.32 614.84 523.62 612.36 526.39 601.31 538.69 598.82"/><polyline class="cls-7" points="669.93 515.34 680.59 521.4 691.24 515.34 701.9 521.4 712.55 515.34 723.2 521.4"/><polyline class="cls-5" points="691.78 523.31 702.43 529.37 713.09 523.31 723.74 529.37 734.4 523.31 745.05 529.37"/><polyline class="cls-9" points="453.04 768.91 465.34 766.42 468.11 755.37 480.41 752.88 483.18 741.83 495.48 739.34"/><polyline class="cls-5" points="474.76 760.66 487.06 758.18 489.83 747.12 502.13 744.64 504.9 733.58 517.2 731.1"/><polyline class="cls-7" points="707.49 647.41 718.15 653.47 728.8 647.41 739.46 653.47"/><polyline class="cls-7" points="718.15 661.73 728.8 655.67 739.46 661.73"/><polyline class="cls-7" points="624.09 506.12 634.75 500.06 645.41 506.12"/><polyline class="cls-7" points="802.11 552.05 812.76 545.99 823.42 552.05"/><polyline class="cls-7" points="782.19 761.75 792.85 767.81 803.5 761.75 814.16 767.81"/><polyline class="cls-7" points="792.85 776.07 803.5 770.01 814.16 776.07"/><polyline class="cls-9" points="446.28 614.54 456.93 620.6 467.59 614.54 478.25 620.6"/><polyline class="cls-7" points="456.93 628.86 467.59 622.8 478.25 628.86"/><polyline class="cls-7" points="624.96 731.07 637.26 728.58 640.03 717.53 652.33 715.04"/><polyline class="cls-9" points="643.76 734.42 646.53 723.37 658.83 720.88"/><polyline class="cls-7" points="786.43 506.51 798.73 504.02 801.5 492.97 813.8 490.48"/><polyline class="cls-9" points="805.23 509.86 807.99 498.81 820.3 496.32"/><polyline class="cls-9" points="510.65 662.08 521.3 668.14 531.96 662.08 542.62 668.14"/><polyline class="cls-7" points="521.21 715.13 531.87 709.08 542.53 715.13"/><polyline class="cls-7" points="728.8 464.36 739.46 458.3 750.12 464.36"/><g class="cls-14"><line class="cls-4" x1="561.65" y1="682.41" x2="561.65" y2="694.38"/><line class="cls-4" x1="568.3" y1="688.39" x2="554.99" y2="688.39"/></g><g class="cls-14"><line class="cls-4" x1="586.97" y1="509.77" x2="586.97" y2="521.73"/><line class="cls-4" x1="593.63" y1="515.75" x2="580.32" y2="515.75"/></g><g class="cls-14"><line class="cls-4" x1="800.26" y1="644.46" x2="800.26" y2="656.42"/><line class="cls-4" x1="806.92" y1="650.44" x2="793.61" y2="650.44"/></g><g class="cls-14"><line class="cls-3" x1="691.78" y1="550.87" x2="691.78" y2="562.83"/><line class="cls-3" x1="698.43" y1="556.85" x2="685.12" y2="556.85"/></g><g class="cls-14"><line class="cls-3" x1="501.39" y1="592.84" x2="501.39" y2="604.8"/><line class="cls-3" x1="508.04" y1="598.82" x2="494.73" y2="598.82"/></g><g class="cls-14"><line class="cls-2" x1="477.38" y1="487.58" x2="477.38" y2="499.54"/><line class="cls-2" x1="484.03" y1="493.56" x2="470.73" y2="493.56"/></g><ellipse class="cls-7" cx="561.65" cy="721.75" rx="5.41" ry="4.86"/><ellipse class="cls-7" cx="521.23" cy="563.36" rx="5.41" ry="4.86"/><g class="cls-14"><line class="cls-3" x1="456.06" y1="734" x2="456.06" y2="745.95"/><line class="cls-3" x1="462.72" y1="739.98" x2="449.4" y2="739.98"/></g><ellipse class="cls-7" cx="477.38" cy="721.09" rx="5.41" ry="4.86"/><g class="cls-14"><g><polyline class="cls-4" points="530.97 510.33 529.96 508.76 528.95 510.33"/><line class="cls-6" x1="526.71" y1="513.81" x2="523.35" y2="519.04"/><polyline class="cls-4" points="522.23 520.78 521.22 522.35 523.24 522.35"/><line class="cls-6" x1="527.72" y1="522.35" x2="534.43" y2="522.35"/><polyline class="cls-4" points="536.67 522.35 538.69 522.35 537.68 520.78"/><line class="cls-6" x1="535.44" y1="517.3" x2="532.09" y2="512.07"/></g></g><polygon class="cls-5" points="813.8 584.78 805.06 598.37 822.53 598.37 813.8 584.78"/><g class="cls-14"><line class="cls-3" x1="685.47" y1="672.08" x2="676.06" y2="680.54"/><line class="cls-3" x1="685.47" y1="680.54" x2="676.06" y2="672.08"/></g><ellipse class="cls-8" cx="650.7" cy="754.87" rx="5.41" ry="4.86"/><ellipse class="cls-12" cx="678.02" cy="485.05" rx="5.41" ry="4.86"/><polyline class="cls-7" points="521.76 461.26 534.06 458.77 536.83 447.71 549.13 445.23"/><polyline class="cls-9" points="540.55 464.61 543.32 453.55 555.62 451.07"/><ellipse class="cls-10" cx="547.5" cy="485.05" rx="5.41" ry="4.86"/><polyline class="cls-7" points="733.09 567.04 745.39 564.55 748.16 553.5 760.46 551.01"/><polyline class="cls-9" points="751.89 570.39 754.65 559.34 766.96 556.85"/><ellipse class="cls-9" cx="758.83" cy="590.83" rx="5.41" ry="4.86"/><polygon class="cls-9" points="586.65 738.99 570.95 742.77 582.44 753.1 586.65 738.99"/><polygon class="cls-9" points="474.54 547.33 458.84 551.11 470.33 561.44 474.54 547.33"/><polygon class="cls-9" points="707.84 448.05 692.14 451.83 703.63 462.16 707.84 448.05"/><rect class="cls-7" x="696.29" y="699.97" width="11.55" height="10.38"/><rect class="cls-9" x="723.03" y="766.87" width="11.55" height="10.38"/><polygon class="cls-13" points="593.03 707.3 601.19 699.97 609.36 707.3 601.19 714.64 593.03 707.3"/><polygon class="cls-13" points="637.76 445.23 645.93 437.89 654.09 445.23 645.93 452.57 637.76 445.23"/><polygon class="cls-13" points="444.21 446.43 452.37 439.09 460.54 446.43 452.37 453.76 444.21 446.43"/><polygon class="cls-13" points="518.47 772.06 526.63 764.72 534.8 772.06 526.63 779.4 518.47 772.06"/><rect class="cls-9" x="553.33" y="643.09" width="11.55" height="10.38"/><polygon class="cls-11" points="758.83 477.5 767 484.83 758.83 492.17 750.67 484.83 758.83 477.5"/><g class="cls-14"><rect class="cls-4" x="776.76" y="694.71" width="19.33" height="17.37"/><polygon class="cls-1" points="800.26 691.51 780.93 691.51 776.76 694.71 796.09 694.71 800.26 691.51"/><polygon class="cls-1" points="800.26 708.87 800.26 691.51 796.09 694.71 796.09 712.08 800.26 708.87"/></g><g class="cls-14"><rect class="cls-2" x="452.37" y="668.77" width="19.33" height="17.37"/><polygon class="cls-2" points="475.87 665.56 456.54 665.56 452.37 668.77 471.7 668.77 475.87 665.56"/><polygon class="cls-2" points="475.87 682.93 475.87 665.56 471.7 668.77 471.7 686.13 475.87 682.93"/></g><g class="cls-14"><rect class="cls-3" x="600.25" y="467.57" width="19.33" height="17.37"/><polygon class="cls-3" points="623.75 464.36 604.42 464.36 600.25 467.57 619.57 467.57 623.75 464.36"/><polygon class="cls-3" points="623.75 481.73 623.75 464.36 619.57 467.57 619.57 484.93 623.75 481.73"/></g><g class="cls-14"><rect class="cls-2" x="669.46" y="626.56" width="19.33" height="17.37"/><polygon class="cls-2" points="692.96 623.36 673.63 623.36 669.46 626.56 688.78 626.56 692.96 623.36"/><polygon class="cls-2" points="692.96 640.72 692.96 623.36 688.78 626.56 688.78 643.93 692.96 640.72"/></g><ellipse class="cls-10" cx="669.11" cy="579.84" rx="5.41" ry="4.86"/><ellipse class="cls-9" cx="627.79" cy="554.4" rx="5.41" ry="4.86"/></g><g><rect class="cls-15" x="837.47" y="400.05" width="385.23" height="380.01"/><polyline class="cls-7" points="988.14 550.5 998.29 556.84 1008.44 550.5 1018.59 556.84"/><rect class="cls-9" x="1015.56" y="573.71" width="11" height="10.85"/><polyline class="cls-7" points="1003.69 627.99 1013.84 621.66 1023.99 627.99"/><g class="cls-14"><line class="cls-2" x1="976.03" y1="581.85" x2="976.03" y2="594.35"/><line class="cls-2" x1="982.37" y1="588.1" x2="969.69" y2="588.1"/></g><path class="cls-7" d="M867.55,557.74c3.59-3.54,8.13,.94,11.72-2.6,3.59-3.54-.95-8.02,2.64-11.56,3.59-3.54,8.13,.94,11.72-2.6,3.59-3.54-.95-8.02,2.64-11.56,3.59-3.54,8.13,.94,11.72-2.6"/><path class="cls-7" d="M1114.51,720.45c5.07,0,5.07,6.33,10.15,6.33s5.08-6.33,10.15-6.33,5.07,6.33,10.15,6.33,5.08-6.33,10.15-6.33,5.08,6.33,10.15,6.33"/><path class="cls-7" d="M963.52,758.67c5.07,0,5.07,6.33,10.15,6.33s5.08-6.33,10.15-6.33,5.07,6.33,10.15,6.33,5.08-6.33,10.15-6.33,5.08,6.33,10.15,6.33"/><path class="cls-7" d="M1159.25,419.29c5.07,0,5.07,6.33,10.15,6.33s5.08-6.33,10.15-6.33,5.07,6.33,10.15,6.33,5.08-6.33,10.15-6.33,5.08,6.33,10.15,6.33"/><path class="cls-9" d="M938.15,514.56c5.07,0,5.07,6.33,10.15,6.33s5.08-6.33,10.15-6.33,5.07,6.33,10.15,6.33,5.08-6.33,10.15-6.33,5.08,6.33,10.15,6.33"/><polyline class="cls-7" points="898.16 608.42 909.87 605.82 912.51 594.26 924.23 591.66 926.87 580.11 938.58 577.5"/><polyline class="cls-7" points="1063.59 490.21 1073.74 496.55 1083.89 490.21 1094.04 496.55 1104.19 490.21 1114.34 496.55"/><polyline class="cls-5" points="1084.4 498.54 1094.55 504.88 1104.7 498.54 1114.85 504.88 1125 498.54 1135.15 504.88"/><polyline class="cls-9" points="857 755.37 868.72 752.77 871.35 741.21 883.07 738.61 885.71 727.05 897.42 724.45"/><polyline class="cls-5" points="877.69 746.75 889.41 744.15 892.04 732.59 903.76 729.99 906.39 718.43 918.11 715.83"/><polyline class="cls-7" points="1099.37 628.32 1109.52 634.65 1119.67 628.32 1129.82 634.65"/><polyline class="cls-7" points="1109.52 643.29 1119.67 636.95 1129.82 643.29"/><polyline class="cls-7" points="1019.93 480.57 1030.08 474.23 1040.23 480.57"/><polyline class="cls-7" points="1189.5 528.59 1199.64 522.26 1209.79 528.59"/><polyline class="cls-7" points="1170.53 747.89 1180.68 754.22 1190.83 747.89 1200.98 754.22"/><polyline class="cls-7" points="1180.68 762.86 1190.83 756.52 1200.98 762.86"/><polyline class="cls-9" points="850.56 593.95 860.71 600.28 870.86 593.95 881.01 600.28"/><polyline class="cls-7" points="860.71 608.92 870.86 602.59 881.01 608.92"/><polyline class="cls-7" points="1020.76 715.8 1032.48 713.2 1035.11 701.64 1046.83 699.04"/><polyline class="cls-9" points="1038.67 719.31 1041.3 707.75 1053.02 705.15"/><polyline class="cls-7" points="1174.56 480.98 1186.28 478.37 1188.91 466.81 1200.63 464.21"/><polyline class="cls-9" points="1192.47 484.48 1195.1 472.92 1206.82 470.32"/><polyline class="cls-9" points="911.87 643.66 922.02 649.99 932.17 643.66 942.32 649.99"/><polyline class="cls-7" points="921.93 699.14 932.08 692.8 942.24 699.14"/><polyline class="cls-7" points="1119.67 436.9 1129.82 430.57 1139.97 436.9"/><g class="cls-14"><line class="cls-4" x1="960.45" y1="664.92" x2="960.45" y2="677.43"/><line class="cls-4" x1="966.79" y1="671.17" x2="954.11" y2="671.17"/></g><g class="cls-14"><line class="cls-4" x1="984.57" y1="484.39" x2="984.57" y2="496.89"/><line class="cls-4" x1="990.91" y1="490.64" x2="978.23" y2="490.64"/></g><g class="cls-14"><line class="cls-4" x1="1187.74" y1="625.23" x2="1187.74" y2="637.74"/><line class="cls-4" x1="1194.08" y1="631.48" x2="1181.4" y2="631.48"/></g><g class="cls-14"><line class="cls-3" x1="1084.4" y1="527.37" x2="1084.4" y2="539.88"/><line class="cls-3" x1="1090.74" y1="533.62" x2="1078.06" y2="533.62"/></g><g class="cls-14"><line class="cls-3" x1="903.05" y1="571.25" x2="903.05" y2="583.76"/><line class="cls-3" x1="909.39" y1="577.5" x2="896.71" y2="577.5"/></g><g class="cls-14"><line class="cls-2" x1="880.18" y1="461.18" x2="880.18" y2="473.68"/><line class="cls-2" x1="886.52" y1="467.43" x2="873.84" y2="467.43"/></g><ellipse class="cls-7" cx="960.45" cy="706.05" rx="5.15" ry="5.08"/><ellipse class="cls-7" cx="921.95" cy="540.42" rx="5.15" ry="5.08"/><g class="cls-14"><line class="cls-3" x1="859.87" y1="718.86" x2="859.87" y2="731.37"/><line class="cls-3" x1="866.21" y1="725.11" x2="853.53" y2="725.11"/></g><ellipse class="cls-7" cx="880.18" cy="705.37" rx="5.15" ry="5.08"/><g class="cls-14"><g><polyline class="cls-4" points="931.23 484.97 930.26 483.33 929.3 484.97"/><line class="cls-6" x1="927.17" y1="488.61" x2="923.97" y2="494.08"/><polyline class="cls-4" points="922.9 495.9 921.94 497.54 923.87 497.54"/><line class="cls-6" x1="928.13" y1="497.54" x2="934.52" y2="497.54"/><polyline class="cls-4" points="936.66 497.54 938.58 497.54 937.62 495.9"/><line class="cls-6" x1="935.49" y1="492.26" x2="932.29" y2="486.79"/></g></g><polygon class="cls-5" points="1200.63 562.82 1192.31 577.04 1208.95 577.04 1200.63 562.82"/><g class="cls-14"><line class="cls-3" x1="1078.4" y1="654.12" x2="1069.43" y2="662.96"/><line class="cls-3" x1="1078.4" y1="662.96" x2="1069.43" y2="654.12"/></g><ellipse class="cls-8" cx="1045.27" cy="740.69" rx="5.15" ry="5.08"/><ellipse class="cls-12" cx="1071.3" cy="458.53" rx="5.15" ry="5.08"/><polyline class="cls-7" points="922.45 433.65 934.17 431.05 936.81 419.49 948.52 416.89"/><polyline class="cls-9" points="940.36 437.16 943 425.6 954.71 423"/><ellipse class="cls-10" cx="946.98" cy="458.54" rx="5.15" ry="5.08"/><polyline class="cls-7" points="1123.75 544.27 1135.47 541.67 1138.11 530.12 1149.82 527.51"/><polyline class="cls-9" points="1141.66 547.78 1144.3 536.22 1156.01 533.62"/><ellipse class="cls-9" cx="1148.27" cy="569.16" rx="5.15" ry="5.08"/><polygon class="cls-9" points="984.26 724.09 969.31 728.03 980.26 738.84 984.26 724.09"/><polygon class="cls-9" points="877.48 523.67 862.52 527.62 873.47 538.42 877.48 523.67"/><polygon class="cls-9" points="1099.7 419.85 1084.75 423.79 1095.69 434.59 1099.7 419.85"/><rect class="cls-7" x="1088.7" y="683.28" width="11" height="10.85"/><rect class="cls-9" x="1114.17" y="753.24" width="11" height="10.85"/><polygon class="cls-13" points="990.34 690.95 998.12 683.28 1005.9 690.95 998.12 698.62 990.34 690.95"/><polygon class="cls-13" points="1032.95 416.89 1040.73 409.22 1048.51 416.89 1040.73 424.57 1032.95 416.89"/><polygon class="cls-13" points="848.58 418.15 856.36 410.48 864.14 418.15 856.36 425.82 848.58 418.15"/><polygon class="cls-13" points="919.32 758.67 927.1 750.99 934.87 758.67 927.1 766.34 919.32 758.67"/><rect class="cls-9" x="952.53" y="623.8" width="11" height="10.85"/><polygon class="cls-11" points="1148.28 450.64 1156.05 458.31 1148.28 465.98 1140.5 458.31 1148.28 450.64"/><g class="cls-14"><rect class="cls-4" x="1165.35" y="677.78" width="18.41" height="18.16"/><polygon class="cls-1" points="1187.74 674.43 1169.33 674.43 1165.35 677.78 1183.76 677.78 1187.74 674.43"/><polygon class="cls-1" points="1187.74 692.59 1187.74 674.43 1183.76 677.78 1183.76 695.95 1187.74 692.59"/></g><g class="cls-14"><rect class="cls-2" x="856.36" y="650.65" width="18.41" height="18.16"/><polygon class="cls-2" points="878.74 647.3 860.33 647.3 856.36 650.65 874.77 650.65 878.74 647.3"/><polygon class="cls-2" points="878.74 665.46 878.74 647.3 874.77 650.65 874.77 668.81 878.74 665.46"/></g><g class="cls-14"><rect class="cls-3" x="997.22" y="440.25" width="18.41" height="18.16"/><polygon class="cls-3" points="1019.6 436.9 1001.19 436.9 997.22 440.25 1015.63 440.25 1019.6 436.9"/><polygon class="cls-3" points="1019.6 455.06 1019.6 436.9 1015.63 440.25 1015.63 458.42 1019.6 455.06"/></g><g class="cls-14"><rect class="cls-2" x="1063.14" y="606.52" width="18.41" height="18.16"/><polygon class="cls-2" points="1085.53 603.17 1067.12 603.17 1063.14 606.52 1081.55 606.52 1085.53 603.17"/><polygon class="cls-2" points="1085.53 621.33 1085.53 603.17 1081.55 606.52 1081.55 624.68 1085.53 621.33"/></g><ellipse class="cls-10" cx="1062.82" cy="557.66" rx="5.15" ry="5.08"/><ellipse class="cls-9" cx="1023.45" cy="531.06" rx="5.15" ry="5.08"/></g><g><rect class="cls-15" x="866.54" y="24.19" width="385.23" height="363.4"/><polyline class="cls-7" points="1017.21 168.07 1027.36 174.13 1037.51 168.07 1047.66 174.13"/><rect class="cls-9" x="1044.63" y="190.26" width="11" height="10.38"/><polyline class="cls-7" points="1032.76 242.17 1042.91 236.11 1053.06 242.17"/><g class="cls-14"><line class="cls-2" x1="1005.1" y1="198.04" x2="1005.1" y2="210"/><line class="cls-2" x1="1011.44" y1="204.02" x2="998.76" y2="204.02"/></g><path class="cls-7" d="M896.62,174.98c3.59-3.39,8.13,.9,11.72-2.49,3.59-3.39-.95-7.67,2.64-11.05,3.59-3.38,8.13,.9,11.72-2.49,3.59-3.39-.95-7.67,2.64-11.05,3.59-3.39,8.13,.9,11.72-2.49"/><path class="cls-7" d="M1143.58,330.58c5.07,0,5.07,6.06,10.15,6.06s5.08-6.06,10.15-6.06,5.07,6.06,10.15,6.06,5.08-6.06,10.15-6.06,5.08,6.06,10.15,6.06"/><path class="cls-7" d="M992.59,367.13c5.07,0,5.07,6.06,10.15,6.06s5.08-6.06,10.15-6.06,5.07,6.06,10.15,6.06,5.08-6.06,10.15-6.06,5.08,6.06,10.15,6.06"/><path class="cls-7" d="M1188.32,42.59c5.07,0,5.07,6.06,10.15,6.06s5.08-6.06,10.15-6.06,5.07,6.06,10.15,6.06,5.08-6.06,10.15-6.06,5.08,6.06,10.15,6.06"/><path class="cls-9" d="M967.22,133.7c5.07,0,5.07,6.06,10.15,6.06s5.08-6.06,10.15-6.06,5.07,6.06,10.15,6.06,5.08-6.06,10.15-6.06,5.08,6.06,10.15,6.06"/><polyline class="cls-7" points="927.23 223.46 938.95 220.97 941.58 209.91 953.3 207.43 955.94 196.38 967.65 193.89"/><polyline class="cls-7" points="1092.67 110.41 1102.81 116.47 1112.96 110.41 1123.11 116.47 1133.26 110.41 1143.41 116.47"/><polyline class="cls-5" points="1113.47 118.38 1123.62 124.44 1133.77 118.38 1143.92 124.44 1154.07 118.38 1164.22 124.44"/><polyline class="cls-9" points="886.07 363.98 897.79 361.49 900.42 350.44 912.14 347.96 914.78 336.9 926.5 334.41"/><polyline class="cls-5" points="906.76 355.73 918.48 353.25 921.11 342.19 932.83 339.71 935.47 328.65 947.19 326.17"/><polyline class="cls-7" points="1128.44 242.48 1138.59 248.54 1148.74 242.48 1158.89 248.54"/><polyline class="cls-7" points="1138.59 256.8 1148.74 250.74 1158.89 256.8"/><polyline class="cls-7" points="1049 101.19 1059.16 95.13 1069.3 101.19"/><polyline class="cls-7" points="1218.57 147.12 1228.72 141.06 1238.87 147.12"/><polyline class="cls-7" points="1199.6 356.82 1209.75 362.88 1219.9 356.82 1230.05 362.88"/><polyline class="cls-7" points="1209.75 371.14 1219.9 365.08 1230.05 371.14"/><polyline class="cls-9" points="879.63 209.61 889.78 215.67 899.93 209.61 910.08 215.67"/><polyline class="cls-7" points="889.78 223.93 899.93 217.87 910.08 223.93"/><polyline class="cls-7" points="1049.83 326.14 1061.55 323.65 1064.18 312.6 1075.9 310.11"/><polyline class="cls-9" points="1067.74 329.49 1070.37 318.44 1082.09 315.95"/><polyline class="cls-7" points="1203.63 101.58 1215.35 99.09 1217.99 88.04 1229.71 85.55"/><polyline class="cls-9" points="1221.54 104.93 1224.18 93.88 1235.9 91.39"/><polyline class="cls-9" points="940.94 257.15 951.09 263.21 961.24 257.15 971.39 263.21"/><polyline class="cls-7" points="951.01 310.2 961.16 304.15 971.31 310.2"/><polyline class="cls-7" points="1148.74 59.43 1158.89 53.37 1169.05 59.43"/><g class="cls-14"><line class="cls-4" x1="989.52" y1="277.49" x2="989.52" y2="289.45"/><line class="cls-4" x1="995.86" y1="283.46" x2="983.18" y2="283.46"/></g><g class="cls-14"><line class="cls-4" x1="1013.64" y1="104.84" x2="1013.64" y2="116.8"/><line class="cls-4" x1="1019.98" y1="110.82" x2="1007.31" y2="110.82"/></g><g class="cls-14"><line class="cls-4" x1="1216.81" y1="239.53" x2="1216.81" y2="251.49"/><line class="cls-4" x1="1223.15" y1="245.51" x2="1210.47" y2="245.51"/></g><g class="cls-14"><line class="cls-3" x1="1113.47" y1="145.94" x2="1113.47" y2="157.9"/><line class="cls-3" x1="1119.81" y1="151.92" x2="1107.14" y2="151.92"/></g><g class="cls-14"><line class="cls-3" x1="932.12" y1="187.91" x2="932.12" y2="199.87"/><line class="cls-3" x1="938.46" y1="193.89" x2="925.78" y2="193.89"/></g><g class="cls-14"><line class="cls-2" x1="909.25" y1="82.65" x2="909.25" y2="94.61"/><line class="cls-2" x1="915.59" y1="88.63" x2="902.92" y2="88.63"/></g><ellipse class="cls-7" cx="989.52" cy="316.82" rx="5.15" ry="4.86"/><ellipse class="cls-7" cx="951.02" cy="158.43" rx="5.15" ry="4.86"/><g class="cls-14"><line class="cls-3" x1="888.94" y1="329.07" x2="888.94" y2="341.03"/><line class="cls-3" x1="895.28" y1="335.05" x2="882.61" y2="335.05"/></g><ellipse class="cls-7" cx="909.25" cy="316.16" rx="5.15" ry="4.86"/><g class="cls-14"><g><polyline class="cls-4" points="960.3 105.4 959.33 103.83 958.37 105.4"/><line class="cls-6" x1="956.24" y1="108.88" x2="953.04" y2="114.11"/><polyline class="cls-4" points="951.98 115.85 951.01 117.42 952.94 117.42"/><line class="cls-6" x1="957.2" y1="117.42" x2="963.6" y2="117.42"/><polyline class="cls-4" points="965.73 117.42 967.65 117.42 966.69 115.85"/><line class="cls-6" x1="964.56" y1="112.37" x2="961.36" y2="107.14"/></g></g><polygon class="cls-5" points="1229.71 179.85 1221.38 193.44 1238.02 193.44 1229.71 179.85"/><g class="cls-14"><line class="cls-3" x1="1107.47" y1="267.15" x2="1098.51" y2="275.61"/><line class="cls-3" x1="1107.47" y1="275.61" x2="1098.51" y2="267.15"/></g><ellipse class="cls-8" cx="1074.35" cy="349.94" rx="5.15" ry="4.86"/><ellipse class="cls-12" cx="1100.37" cy="80.12" rx="5.15" ry="4.86"/><polyline class="cls-7" points="951.52 56.33 963.24 53.84 965.88 42.78 977.59 40.3"/><polyline class="cls-9" points="969.43 59.68 972.07 48.62 983.78 46.14"/><ellipse class="cls-10" cx="976.05" cy="80.12" rx="5.15" ry="4.86"/><polyline class="cls-7" points="1152.82 162.11 1164.54 159.62 1167.18 148.57 1178.9 146.08"/><polyline class="cls-9" points="1170.73 165.46 1173.37 154.41 1185.09 151.92"/><ellipse class="cls-9" cx="1177.35" cy="185.91" rx="5.15" ry="4.86"/><polygon class="cls-9" points="1013.34 334.06 998.38 337.84 1009.33 348.17 1013.34 334.06"/><polygon class="cls-9" points="906.55 142.4 891.6 146.18 902.54 156.51 906.55 142.4"/><polygon class="cls-9" points="1128.77 43.12 1113.82 46.9 1124.77 57.23 1128.77 43.12"/><rect class="cls-7" x="1117.77" y="295.04" width="11" height="10.38"/><rect class="cls-9" x="1143.24" y="361.94" width="11" height="10.38"/><polygon class="cls-13" points="1019.41 302.37 1027.19 295.04 1034.97 302.37 1027.19 309.71 1019.41 302.37"/><polygon class="cls-13" points="1062.02 40.3 1069.8 32.96 1077.58 40.3 1069.8 47.64 1062.02 40.3"/><polygon class="cls-13" points="877.65 41.5 885.43 34.16 893.21 41.5 885.43 48.84 877.65 41.5"/><polygon class="cls-13" points="948.39 367.13 956.17 359.79 963.95 367.13 956.17 374.47 948.39 367.13"/><rect class="cls-9" x="981.6" y="238.16" width="11" height="10.38"/><polygon class="cls-11" points="1177.35 72.57 1185.13 79.9 1177.35 87.24 1169.57 79.9 1177.35 72.57"/><g class="cls-14"><rect class="cls-4" x="1194.43" y="289.79" width="18.41" height="17.37"/><polygon class="cls-1" points="1216.81 286.58 1198.4 286.58 1194.43 289.79 1212.84 289.79 1216.81 286.58"/><polygon class="cls-1" points="1216.81 303.94 1216.81 286.58 1212.84 289.79 1212.84 307.15 1216.81 303.94"/></g><g class="cls-14"><rect class="cls-2" x="885.43" y="263.84" width="18.41" height="17.37"/><polygon class="cls-2" points="907.82 260.63 889.41 260.63 885.43 263.84 903.84 263.84 907.82 260.63"/><polygon class="cls-2" points="907.82 278 907.82 260.63 903.84 263.84 903.84 281.2 907.82 278"/></g><g class="cls-14"><rect class="cls-3" x="1026.29" y="62.64" width="18.41" height="17.37"/><polygon class="cls-3" points="1048.67 59.43 1030.26 59.43 1026.29 62.64 1044.7 62.64 1048.67 59.43"/><polygon class="cls-3" points="1048.67 76.8 1048.67 59.43 1044.7 62.64 1044.7 80.01 1048.67 76.8"/></g><g class="cls-14"><rect class="cls-2" x="1092.21" y="221.64" width="18.41" height="17.37"/><polygon class="cls-2" points="1114.6 218.43 1096.19 218.43 1092.21 221.64 1110.62 221.64 1114.6 218.43"/><polygon class="cls-2" points="1114.6 235.79 1114.6 218.43 1110.62 221.64 1110.62 239 1114.6 235.79"/></g><ellipse class="cls-10" cx="1091.89" cy="174.91" rx="5.15" ry="4.86"/><ellipse class="cls-9" cx="1052.53" cy="149.47" rx="5.15" ry="4.86"/></g></g></svg>